PathFileType	4	(X/Y/Z)	SUBJ89_2_walk_RCNL2025.trc
DataRate	CameraRate	NumFrames	NumMarkers	Units	OrigDataRate	OrigDataStartFrame	OrigNumFrames
100	100	12	25	mm	100	1	274
Frame#	Time	R_Shoulder			L_Shoulder			C7			J_Notch			R_Elbow			L_Elbow			R_Wrist			L_Wrist			R_Asis			L_Asis			Sacral			Thoracic			Sternum			R_Thigh_Lateral			R_Knee_Lateral			R_Shank_Lateral			R_Ankle_Lateral			R_Heel			R_Toe			L_Thigh_Lateral			L_Knee_Lateral			L_Shank_Lateral			L_Ankle_Lateral			L_Heel			L_Toe		
		X1	Y1	Z1	X2	Y2	Z2	X3	Y3	Z3	X4	Y4	Z4	X5	Y5	Z5	X6	Y6	Z6	X7	Y7	Z7	X8	Y8	Z8	X9	Y9	Z9	X10	Y10	Z10	X11	Y11	Z11	X12	Y12	Z12	X13	Y13	Z13	X14	Y14	Z14	X15	Y15	Z15	X16	Y16	Z16	X17	Y17	Z17	X18	Y18	Z18	X19	Y19	Z19	X20	Y20	Z20	X21	Y21	Z21	X22	Y22	Z22	X23	Y23	Z23	X24	Y24	Z24	X25	Y25	Z25
1	0.00000000	-1080.332153	1397.299683	-25.220810	-1135.897095	1414.624268	-437.568970	-1171.308960	1497.883667	-219.469788	-1060.227905	1368.953247	-233.164032	-1152.375244	1068.743652	28.824366	-1235.123657	1082.536133	-468.653839	-1009.474274	839.317108	-1.946125	-1165.992554	824.312408	-495.806519	-1092.211304	975.775208	-111.228729	-1086.598145	974.992554	-349.942932	-1253.897217	1038.355469	-222.043045	-1262.652832	1323.467529	-213.970810	-1034.299072	1219.351440	-247.866882	-1199.017944	596.582092	-62.092499	-1241.497437	484.734161	-122.438118	-1323.874268	271.710693	-84.154022	-1405.634033	82.164711	-165.754166	-1446.729858	81.116341	-209.235275	-1253.240356	36.102638	-187.051102	-1005.171082	571.533264	-440.865295	-980.748596	497.164001	-368.390961	-976.519348	265.737885	-414.975372	-939.751770	69.105408	-348.898285	-976.208130	68.432404	-299.036255	-786.738403	71.226624	-337.155487
2	0.01000000	-1065.224121	1394.570068	-26.232679	-1121.370483	1411.546997	-438.491943	-1156.517944	1495.089844	-220.377167	-1044.873535	1366.023438	-234.051514	-1135.383057	1065.788940	28.260441	-1222.612793	1080.096924	-468.934937	-990.515839	837.637146	-3.411417	-1157.888184	820.883942	-496.664246	-1077.833374	973.296631	-111.192406	-1071.068481	971.859009	-350.061981	-1239.166748	1035.507690	-223.290894	-1247.899780	1320.825195	-214.822861	-1019.447815	1216.388428	-248.391663	-1190.495728	595.506714	-61.772724	-1234.705444	484.086700	-122.241920	-1321.230347	272.495483	-84.240303	-1405.050049	83.943703	-166.290222	-1445.866821	83.457375	-210.043213	-1253.230591	36.081829	-186.961563	-993.320557	565.902344	-440.724304	-965.468811	494.649475	-367.574158	-948.821228	264.008179	-414.663483	-902.226135	68.859428	-348.437531	-939.472900	66.332405	-299.177429	-749.297668	78.355110	-334.088654
3	0.02000000	-1050.061279	1391.850830	-27.327328	-1106.734009	1408.442749	-439.492401	-1141.658569	1492.281738	-221.388809	-1029.536133	1363.114990	-235.001968	-1118.490723	1062.869507	27.554039	-1209.761963	1077.582520	-469.250702	-971.941986	835.803040	-4.801321	-1149.487122	817.430847	-497.499634	-1063.192871	970.808960	-111.106445	-1055.321411	968.771240	-350.125580	-1224.231934	1032.622437	-224.578522	-1233.023193	1318.136230	-215.750107	-1004.478577	1213.469604	-248.974899	-1181.618652	594.463562	-61.436119	-1227.441772	483.464478	-122.051498	-1318.130249	273.427124	-84.267036	-1404.315552	85.992874	-166.588257	-1444.901123	86.126694	-210.578949	-1253.203369	36.065182	-186.883972	-981.212769	560.245422	-440.527435	-950.123169	492.145416	-366.732330	-922.471863	262.579376	-414.059448	-867.329041	69.117455	-347.473663	-905.189636	64.933411	-298.732056	-714.747498	85.197205	-331.080811
4	0.03000000	-1034.856567	1389.194092	-28.502151	-1091.971802	1405.342651	-440.581360	-1126.720215	1489.499634	-222.520248	-1014.226257	1360.278931	-236.007233	-1101.710693	1060.030640	26.705057	-1196.568481	1075.022583	-469.598663	-953.776215	833.844788	-6.101296	-1140.788574	814.000122	-498.328568	-1048.348389	968.316895	-110.998383	-1039.381104	965.785400	-350.154755	-1209.082275	1029.750732	-225.882065	-1218.006836	1315.439697	-216.755508	-989.349976	1210.642578	-249.623550	-1172.275757	593.434692	-61.102760	-1219.597534	482.840668	-121.872078	-1314.455811	274.492371	-84.212570	-1403.392822	88.334892	-166.595291	-1443.808716	89.168030	-210.771576	-1253.159424	36.053329	-186.817184	-968.316895	554.989258	-440.247864	-934.575867	489.725922	-365.888214	-897.791382	261.273041	-413.122192	-835.564209	69.563248	-346.000732	-873.818604	64.025185	-297.634949	-683.434814	91.115021	-328.263336
5	0.04000000	-1019.619141	1386.651611	-29.751715	-1077.072021	1402.280884	-441.771545	-1111.692017	1486.789185	-223.783264	-998.915283	1357.562622	-237.073135	-1085.062622	1057.319580	25.715031	-1183.030518	1072.449219	-469.977692	-936.044556	831.801697	-7.300266	-1131.785522	810.639130	-499.159775	-1033.319092	965.828552	-110.905891	-1023.276184	962.963135	-350.183350	-1193.713989	1026.948486	-227.172867	-1202.837646	1312.782593	-217.843491	-974.031616	1207.953735	-250.343185	-1162.347778	592.395264	-60.801250	-1211.054565	482.181885	-121.715515	-1310.100464	275.678833	-84.063660	-1402.234131	90.995720	-166.275314	-1442.548340	92.633354	-210.564911	-1253.101440	36.044510	-186.755844	-954.206421	550.566650	-439.871246	-918.712280	487.470245	-365.059692	-875.074341	259.936493	-411.831696	-807.372864	69.908836	-344.082275	-845.774719	63.420719	-295.898285	-655.633606	95.457664	-325.739288
6	0.05000000	-1004.353333	1384.275513	-31.068197	-1062.026733	1399.294922	-443.074677	-1096.563110	1484.204590	-225.184570	-983.556824	1355.014648	-238.213593	-1068.571777	1054.786133	24.586641	-1169.145508	1069.897949	-470.388733	-918.776550	829.719025	-8.389922	-1122.461853	807.391449	-499.994675	-1018.093994	963.356689	-110.871941	-1007.038025	960.376038	-350.251923	-1178.131226	1024.278931	-228.417816	-1187.507812	1310.222168	-219.018478	-958.508911	1205.449341	-251.138687	-1151.709961	591.317139	-60.568127	-1201.685181	481.451843	-121.599571	-1304.967896	276.980072	-83.817291	-1400.773804	94.008217	-165.617538	-1441.053833	96.586441	-209.925095	-1253.036743	36.031952	-186.688080	-938.642700	547.330017	-439.391052	-902.434021	485.476135	-364.249908	-854.506470	258.492828	-410.205200	-783.084229	69.944641	-341.859406	-821.397400	62.986847	-293.635345	-631.529175	97.654037	-323.568817
7	0.06000000	-989.057739	1382.118042	-32.442314	-1046.825928	1396.425903	-444.493103	-1081.323120	1481.810547	-226.724380	-968.112061	1352.687134	-239.439423	-1052.266602	1052.482422	23.322918	-1154.908691	1067.409424	-470.835297	-902.006592	827.643951	-9.363011	-1112.791565	804.299988	-500.828720	-1002.648132	960.922424	-110.939240	-990.701355	958.109375	-350.400391	-1162.348511	1021.814514	-229.579346	-1172.018555	1307.827637	-220.281158	-942.784485	1203.179688	-252.014862	-1140.230835	590.173523	-60.446781	-1191.349121	480.615936	-121.544823	-1298.965454	278.401062	-83.482124	-1398.920654	97.416283	-164.646530	-1439.222778	101.105682	-208.851486	-1252.975830	36.002960	-186.598526	-921.607300	545.468994	-438.801910	-885.656799	483.869720	-363.447937	-836.096375	256.978180	-408.308411	-762.855225	69.577431	-339.525818	-800.903503	62.668221	-291.051025	-611.195190	97.305923	-321.766632
8	0.07000000	-973.724609	1380.234009	-33.864361	-1031.454834	1393.718994	-446.014526	-1065.963257	1479.682129	-228.395065	-952.563171	1350.635986	-240.752838	-1036.175415	1050.462646	21.926401	-1140.313110	1065.030396	-471.322815	-885.773956	825.624023	-10.214108	-1102.740906	801.410736	-501.653961	-986.960327	958.561707	-111.144707	-974.308411	956.261841	-350.662231	-1146.392334	1019.637939	-230.614914	-1156.381104	1305.681396	-221.625000	-926.875122	1201.201050	-252.976822	-1127.771484	588.944519	-60.483292	-1179.893311	479.647400	-121.569374	-1291.994873	279.962585	-83.079224	-1396.553223	101.285774	-163.421310	-1436.904907	106.283798	-207.387222	-1252.929688	35.940449	-186.475250	-903.271545	544.992981	-438.097687	-868.318726	482.798492	-362.639679	-819.654724	255.544357	-406.256683	-746.625122	68.843376	-337.283081	-784.332581	62.494053	-288.401947	-594.569092	94.270691	-320.310913
9	0.08000000	-958.341003	1378.681885	-35.324623	-1015.899841	1391.227417	-447.616058	-1050.479126	1477.902466	-230.180023	-936.912354	1348.921509	-242.148132	-1020.323608	1048.784302	20.398975	-1125.350220	1062.816895	-471.856567	-870.121246	823.707703	-10.942496	-1092.272034	798.771515	-502.458359	-971.028687	956.330566	-111.515862	-957.908630	954.938965	-351.060730	-1130.300781	1017.836670	-231.477921	-1140.616211	1303.874023	-223.034241	-910.808044	1199.577148	-254.029434	-1114.186646	587.622986	-60.717949	-1167.152466	478.532501	-121.682068	-1283.946655	281.703522	-82.640800	-1393.519897	105.714485	-162.018860	-1433.893921	112.222214	-205.624619	-1252.902954	35.827667	-186.319839	-883.913635	545.808594	-437.280914	-850.402954	482.403717	-361.819855	-804.822388	254.418365	-404.206940	-734.105286	67.885643	-335.300781	-771.504211	62.549900	-285.945251	-581.437256	88.737984	-319.160065
10	0.09000000	-942.892456	1377.523071	-36.813068	-1000.157104	1389.016479	-449.269012	-1034.871582	1476.555664	-232.053986	-921.174988	1347.606812	-243.613220	-1004.731445	1047.509644	18.742685	-1110.012695	1060.835571	-472.438232	-855.093414	821.945221	-11.553524	-1081.344666	796.431763	-503.224365	-954.879456	954.303711	-112.069450	-941.550415	954.237366	-351.606567	-1114.121094	1016.488953	-232.123657	-1124.751465	1302.492188	-224.483337	-894.618164	1198.375244	-255.173950	-1099.331543	586.217651	-61.174492	-1152.957031	477.272339	-121.875198	-1274.702148	283.679901	-82.204544	-1389.642456	110.818726	-160.519485	-1429.926147	119.018501	-203.702255	-1252.884521	35.655117	-186.153992	-863.817200	547.819641	-436.373627	-831.965881	482.778595	-360.995544	-791.142578	253.825333	-402.340607	-724.806152	66.894829	-333.689026	-762.007080	62.915627	-283.889618	-571.436340	81.278488	-318.268005
11	0.10000000	-927.367676	1376.818604	-38.319267	-984.237305	1387.163330	-450.940460	-1019.150146	1475.713501	-233.984726	-905.372498	1346.750854	-245.130203	-989.411011	1046.704224	16.961878	-1094.296875	1059.163818	-473.063293	-840.736694	820.388245	-12.057671	-1069.913635	794.451141	-503.934937	-938.566895	952.566956	-112.810951	-925.268677	954.223267	-352.297119	-1097.903076	1015.643860	-232.521744	-1108.820435	1301.601440	-225.938858	-878.347229	1197.654175	-256.401703	-1083.079224	584.752686	-61.850098	-1137.148193	475.880981	-122.118103	-1264.142212	285.960358	-81.804092	-1384.716675	116.698486	-159.004288	-1424.690063	126.746582	-201.794510	-1252.837646	35.427551	-186.010727	-843.208862	550.937012	-435.412628	-813.160034	483.920105	-360.180786	-778.161133	253.894730	-400.829926	-718.101135	66.035286	-332.483215	-755.248779	63.608593	-282.354584	-564.070984	72.778580	-317.589569
12	0.11000000	-911.763916	1376.621216	-39.833439	-968.163818	1385.753906	-452.596161	-1003.336853	1475.417358	-235.935043	-889.527893	1346.396851	-246.676315	-974.366333	1046.430176	15.067151	-1078.208862	1057.884277	-473.721741	-827.095459	819.088379	-12.468480	-1057.925964	792.905334	-504.582932	-922.166565	951.203674	-113.732681	-909.079041	954.914856	-353.117859	-1081.692749	1015.307495	-232.670761	-1092.860718	1301.231812	-227.366348	-862.040161	1197.448853	-257.689484	-1065.343628	583.263794	-62.709049	-1119.602051	474.381714	-122.357765	-1252.157959	288.614014	-81.460876	-1378.515991	123.408234	-157.556091	-1417.848145	135.431168	-200.091782	-1252.683228	35.172436	-185.915680	-822.285156	554.981750	-434.434601	-794.243408	485.692657	-359.391754	-765.539001	254.596573	-399.786316	-713.331787	65.399620	-331.646393	-750.570068	64.573036	-281.353912	-558.770447	64.210350	-317.074432
